<svg width="22" height="22" viewBox="0 0 22 22" fill="none" xmlns="http://www.w3.org/2000/svg">
<g clip-path="url(#clip0_26_2)">
<path d="M1.552 0L11 9.448L22 20.448L20.448 22L17.954 19.494C16.6417 20.5701 15.0981 21.3275 13.444 21.707V19.189C14.4418 18.8821 15.3741 18.3932 16.194 17.747L11 12.552V20.778L4.889 14.667H0V7.333H5.781L0 1.553L1.552 0ZM13.444 0.281C18.346 1.393 22 5.77 22 11C22 12.833 21.548 14.557 20.741 16.072L18.896 14.227C19.3277 13.2057 19.5521 12.1088 19.556 11C19.5554 9.15734 18.9603 7.36404 17.8591 5.88657C16.758 4.40909 15.2096 3.32627 13.444 2.799V0.281ZM13.444 6.074C14.3615 6.52911 15.1337 7.23138 15.6737 8.1017C16.2136 8.97202 16.4998 9.97581 16.5 11C16.5 11.269 16.476 11.526 16.439 11.77L13.444 8.776V6.074ZM11 1.222V6.332L8.446 3.776L11 1.222Z" fill="#9698A1"/>
</g>
<defs>
<clipPath id="clip0_26_2">
<rect width="22" height="22" fill="white"/>
</clipPath>
</defs>
</svg>
