<svg width="22" height="22" viewBox="0 0 22 22" fill="none" xmlns="http://www.w3.org/2000/svg">
<path d="M0 7.32999V14.67H4.89L11 20.78V1.21999L4.89 7.32999H0ZM16.5 11C16.5154 9.97671 16.2348 8.97078 15.6919 8.10324C15.149 7.2357 14.367 6.54352 13.44 6.10999V15.89C14.367 15.4565 15.149 14.7643 15.6919 13.8967C16.2348 13.0292 16.5154 12.0233 16.5 11ZM13.44 0.23999V2.80999C15.2072 3.33212 16.7581 4.41184 17.8611 5.88793C18.9642 7.36402 19.5602 9.15729 19.5602 11C19.5602 12.8427 18.9642 14.636 17.8611 16.1121C16.7581 17.5881 15.2072 18.6679 13.44 19.19V21.76C15.9055 21.2364 18.1164 19.8819 19.7028 17.9232C21.2891 15.9645 22.1547 13.5205 22.1547 11C22.1547 8.47949 21.2891 6.03543 19.7028 4.07676C18.1164 2.11809 15.9055 0.763627 13.44 0.23999Z" fill="#3498FD"/>
</svg>
